<?xml version="1.0" encoding="utf-8"?>
<!-- Generator: Adobe Illustrator 24.0.3, SVG Export Plug-In . SVG Version: 6.00 Build 0)  -->
<svg version="1.1" id="Layer_1" xmlns="http://www.w3.org/2000/svg" xmlns:xlink="http://www.w3.org/1999/xlink" x="0px" y="0px"
	 viewBox="0 0 100 100" style="enable-background:new 0 0 100 100;" xml:space="preserve">
<style type="text/css">
	.st0{fill:#CFB87C;}
	.st1{fill:#FFFFFF;}
</style>
<g>
	<polygon class="st0" points="72.2,25.2 72.2,13.7 59,0 13.3,0 0,13.7 0,61.1 13.3,74.8 27.8,74.8 27.8,86.3 41.2,100 79.8,100 
		93.2,86.3 93.2,49.6 100,49.6 100,25.2 	"/>
	<polygon points="58.5,1.4 70.9,14.3 70.9,26.6 98.6,26.6 98.6,48.2 91.8,48.2 91.8,85.7 79.2,98.6 41.7,98.6 29.2,85.7 29.2,73.3 
		13.8,73.3 1.4,60.5 1.4,14.3 13.8,1.4 	"/>
	<polyline class="st1" points="15.2,69.8 32.6,69.8 32.6,84.2 43.1,95 77.8,95 88.4,84.2 88.4,44.6 95.2,44.6 95.2,30.2 74.3,30.2 
		74.3,80.6 46.6,80.6 46.6,69.8 57,69.8 67.4,59 67.4,44.6 53.5,44.6 53.5,55.4 46.6,55.4 46.6,30.2 25.7,30.2 25.7,44.6 32.6,44.6 
		32.6,55.4 18.7,55.4 18.7,19.3 53.5,19.3 53.5,30.2 67.4,30.2 67.4,15.8 57,5 15.2,5 4.8,15.8 4.8,59 15.2,69.8 	"/>
	<polygon class="st0" points="44.8,68 56.3,68 65.7,58.3 65.7,46.4 55.2,46.4 55.2,57.1 44.8,57.1 44.8,32 27.4,32 27.4,42.9 
		34.3,42.9 34.3,57.1 17,57.1 17,17.5 55.2,17.5 55.2,28.4 65.7,28.4 65.7,16.5 56.3,6.8 16,6.8 6.5,16.5 6.5,58.3 16,68 34.3,68 
		34.3,83.5 43.8,93.2 77.1,93.2 86.7,83.5 86.7,42.9 93.5,42.9 93.5,32 76,32 76,82.4 44.8,82.4 	"/>
</g>
</svg>
