<?xml version="1.0" encoding="utf-8"?>
<!-- Generator: Adobe Illustrator 22.0.1, SVG Export Plug-In . SVG Version: 6.00 Build 0)  -->
<svg version="1.1" id="Layer_1" xmlns="http://www.w3.org/2000/svg" xmlns:xlink="http://www.w3.org/1999/xlink" x="0px" y="0px"
	 viewBox="0 0 400 77" style="enable-background:new 0 0 400 77;" xml:space="preserve">
<style type="text/css">
	.st0{fill:none;stroke:#000000;}
	.st1{fill:#CFB87C;}
	.st2{fill:#FFFFFF;}
</style>
<g>
	<path d="M100,19.3h2.1v14.1c0,5.3,2.4,7.3,6.7,7.3s6.7-2,6.7-7.3V19.3h2.1v14.5c0,4.7-2.5,8.7-8.8,8.7c-6.3,0-8.8-4-8.8-8.7V19.3z"
		/>
	<path d="M121.5,25.6h2v2.9h0.1c0.7-2,3-3.3,5.2-3.3c4.7,0,6.1,2.4,6.1,6.4v10.6h-2V31.9c0-2.9-1-5-4.1-5c-3.2,0-5.1,2.4-5.2,5.6V42
		h-2V25.6z"/>
	<path d="M138.7,19.3h2v3.2h-2V19.3z M138.7,25.6h2V42h-2V25.6z"/>
	<path d="M142.8,25.6h2.2l5.2,14.4h0.1l5.1-14.4h2.1L151.2,42h-2.1L142.8,25.6z"/>
	<path d="M160.5,34.4c0,3,1.6,6.5,5.4,6.5c3,0,4.6-1.7,5.2-4.2h2c-0.8,3.7-3,5.8-7.1,5.8c-5.2,0-7.4-4-7.4-8.7
		c0-4.4,2.2-8.7,7.4-8.7c5.3,0,7.4,4.7,7.2,9.2h-12.7V34.4z M171.1,32.7c-0.1-3.1-2-5.8-5.2-5.8c-3.3,0-5.1,2.9-5.4,5.8H171.1z"/>
	<path d="M175.9,25.6h1.8v3.8h0.1c1.1-2.7,3.3-4.2,6.2-4v2c-3.6-0.2-6.2,2.4-6.2,5.8V42h-2V25.6H175.9z"/>
	<path d="M195.7,30.4c-0.1-2.4-2-3.6-4.2-3.6c-1.8,0-3.9,0.7-3.9,2.9c0,1.8,2,2.4,3.4,2.8l2.7,0.6c2.3,0.3,4.7,1.7,4.7,4.6
		c0,3.6-3.5,5-6.6,5c-3.8,0-6.5-1.8-6.8-5.8h2c0.1,2.7,2.1,4.1,4.9,4.1c1.9,0,4.5-0.8,4.5-3.1c0-1.9-1.8-2.5-3.6-3l-2.5-0.5
		c-2.7-0.7-4.6-1.6-4.6-4.4c0-3.4,3.3-4.7,6.2-4.7c3.3,0,5.8,1.7,6.1,5.3h-2V30.4z"/>
	<path d="M201.3,19.3h2v3.2h-2V19.3z M201.3,25.6h2V42h-2V25.6z"/>
	<path d="M210.3,25.6h3.3v1.7h-3.3v11c0,1.3,0.2,2.1,1.6,2.1c0.5,0,1.2,0,1.7-0.1V42c-0.6,0-1.2,0.1-1.8,0.1c-2.7,0-3.6-0.8-3.6-3.7
		V27.3h-2.9v-1.7h2.9v-4.9h2v4.9H210.3z"/>
	<path d="M214.6,25.6h2.1l5.4,14l5.1-14h2l-7.1,18.9c-1.2,2.8-1.8,3.6-4.4,3.6c-0.8,0-1.2,0-1.5-0.1v-1.7c0.5,0.1,1,0.1,1.4,0.1
		c1.8,0,2.2-1.1,2.9-2.5l0.7-1.9L214.6,25.6z"/>
	<path d="M254.9,33.9c0,4.7-2.8,8.7-7.8,8.7s-7.8-4-7.8-8.7s2.8-8.7,7.8-8.7S254.9,29.1,254.9,33.9z M241.3,33.9c0,3.5,1.9,7,5.7,7
		c3.8,0,5.7-3.5,5.7-7s-1.9-7-5.7-7S241.3,30.4,241.3,33.9z"/>
	<path d="M264.2,27.3h-3.3V42h-2V27.3h-2.8v-1.7h2.8v-1.5c0-2.9,0.7-4.8,3.9-4.8c0.5,0,1.1,0,1.7,0.1v1.7c-0.5-0.1-1-0.1-1.5-0.1
		c-2.2,0-2.1,1.4-2.2,3.2v1.4h3.3v1.7H264.2z"/>
	<path d="M291.9,26.2c-0.7-3.5-3.7-5.5-7-5.5c-6.1,0-8.6,5-8.6,10s2.5,10,8.6,10c4.2,0,6.9-3.3,7.3-7.3h2.1
		c-0.6,5.5-4.1,9.1-9.5,9.1c-7.2,0-10.7-5.6-10.7-11.9c0-6.2,3.6-11.9,10.7-11.9c4.2,0,8.6,2.5,9.1,7.3h-2.1V26.2z"/>
	<path d="M312.1,33.9c0,4.7-2.8,8.7-7.8,8.7c-5,0-7.8-4-7.8-8.7s2.8-8.7,7.8-8.7C309.4,25.2,312.1,29.1,312.1,33.9z M298.5,33.9
		c0,3.5,1.9,7,5.7,7s5.7-3.5,5.7-7s-1.9-7-5.7-7S298.5,30.4,298.5,33.9z"/>
	<path d="M315.1,19.3h2V42h-2V19.3z"/>
	<path d="M335.7,33.9c0,4.7-2.8,8.7-7.8,8.7c-5,0-7.8-4-7.8-8.7s2.8-8.7,7.8-8.7S335.7,29.1,335.7,33.9z M322.2,33.9
		c0,3.5,1.9,7,5.7,7s5.7-3.5,5.7-7s-1.9-7-5.7-7S322.2,30.4,322.2,33.9z"/>
	<path d="M338.7,25.6h1.8v3.8h0.1c1.1-2.7,3.3-4.2,6.2-4v2c-3.6-0.2-6.2,2.4-6.2,5.8V42h-1.9V25.6z"/>
	<path d="M348.5,30.7c0.2-3.8,2.9-5.5,6.7-5.5c2.9,0,6.1,0.8,6.1,5.3v8.7c0,0.7,0.4,1.2,1.2,1.2c0.2,0,0.5-0.1,0.6-0.1v1.7
		c-0.4,0.1-0.7,0.1-1.3,0.1c-2,0-2.3-1.2-2.3-2.9h-0.1c-1.4,2.1-2.9,3.4-5.9,3.4c-3,0-5.5-1.5-5.5-4.8c0-4.6,4.5-4.8,8.8-5.3
		c1.7-0.2,2.5-0.4,2.5-2.2c0-2.7-1.9-3.4-4.2-3.4c-2.4,0-4.4,1.2-4.4,3.8C350.7,30.7,348.5,30.7,348.5,30.7z M359.3,33L359.3,33
		c-0.3,0.5-1.2,0.6-1.7,0.7c-3.4,0.6-7.6,0.5-7.6,3.8c0,2,1.8,3.3,3.7,3.3c3.1,0,5.7-1.9,5.7-5.2V33H359.3z"/>
	<path d="M379.8,42h-1.8V39h-0.1c-0.8,2.1-3.5,3.6-5.8,3.6c-5,0-7.4-4-7.4-8.7s2.3-8.7,7.4-8.7c2.4,0,4.9,1.3,5.7,3.6h0.1v-9.5h2V42
		H379.8z M372,40.9c4.2,0,5.7-3.6,5.7-7c0-3.4-1.5-7-5.7-7c-3.8,0-5.4,3.6-5.4,7S368.2,40.9,372,40.9z"/>
	<path d="M398.2,33.9c0,4.7-2.8,8.7-7.8,8.7c-5,0-7.8-4-7.8-8.7s2.8-8.7,7.8-8.7C395.6,25.2,398.2,29.1,398.2,33.9z M384.7,33.9
		c0,3.5,1.9,7,5.7,7s5.7-3.5,5.7-7s-1.9-7-5.7-7C386.7,26.9,384.7,30.4,384.7,33.9z"/>
</g>
<line class="st0" x1="139.4" y1="55.5" x2="139.4" y2="67"/>
<line class="st0" x1="229.1" y1="55.7" x2="229.1" y2="67.3"/>
<line class="st0" x1="270.6" y1="55.5" x2="270.6" y2="67"/>
<g>
	<path d="M99.6,57.6h2.4c0.6,0,1.4,0,1.8,0.2c0.4,0.3,0.8,0.7,0.8,1.4c0,0.7-0.4,1.3-1.1,1.5l0,0c0.8,0.2,1.3,0.8,1.3,1.6
		c0,1-0.7,1.9-2.1,1.9h-3.3v-6.6H99.6z M100.6,60.4h1.8c1.1,0,1.5-0.4,1.5-1.1c0-1-0.6-1.1-1.5-1.1h-1.8V60.4z M100.6,63.6h2.2
		c0.7,0,1.3-0.4,1.3-1.3c0-0.8-0.7-1.2-1.5-1.2h-2.1v2.4H100.6z"/>
	<path d="M108.6,59.2c1.6,0,2.4,1.2,2.4,2.5c0,1.5-0.8,2.5-2.4,2.5c-1.6,0-2.4-1.2-2.4-2.5C106.2,60.4,107,59.2,108.6,59.2z
		 M108.6,63.7c0.8,0,1.5-0.6,1.5-1.9c0-1.2-0.6-1.9-1.5-1.9c-0.8,0-1.5,0.6-1.5,1.9S107.7,63.7,108.6,63.7z"/>
	<path d="M116.4,64.3h-0.7v-0.7l0,0c-0.3,0.6-0.8,0.8-1.6,0.8c-1.3,0-1.7-0.7-1.7-1.8v-3.3h0.8v3.4c0,0.6,0.4,1,1,1
		c1,0,1.5-0.6,1.5-1.6v-2.8h0.8v5H116.4z"/>
	<path d="M118,57.6h0.8v6.8H118V57.6z"/>
	<path d="M124.9,64.3h-0.7v-0.6l0,0c-0.3,0.5-0.8,0.7-1.6,0.7c-1.5,0-2.2-1.2-2.2-2.5c0-1.4,0.7-2.5,2.2-2.5c0.5,0,1.3,0.2,1.6,0.7
		l0,0v-2.5h0.8v6.8H124.9z M122.7,63.7c1.1,0,1.5-1,1.5-1.9s-0.4-1.9-1.6-1.9c-1.1,0-1.5,1-1.5,1.9
		C121.1,62.9,121.6,63.7,122.7,63.7z"/>
	<path d="M130.8,62.8c-0.2,1.1-1,1.7-2.1,1.7c-1.6,0-2.3-1.1-2.3-2.5c0-1.5,1-2.5,2.3-2.5c1.7,0,2.3,1.6,2.2,2.9h-3.7
		c0,0.8,0.4,1.6,1.5,1.6c0.6,0,1.2-0.3,1.3-1h0.8V62.8z M130,61.4c0-0.7-0.6-1.4-1.4-1.4c-0.8,0-1.4,0.6-1.4,1.4H130z"/>
	<path d="M132,59.4h0.7v1.1l0,0c0.4-0.7,1-1.2,1.8-1.2v0.8c-1.3,0-1.8,0.7-1.8,2v2.2h-0.8v-5H132z"/>
	<path d="M149.7,59.6c-0.2-1-1-1.5-1.9-1.5c-1.6,0-2.3,1.4-2.3,2.8c0,1.6,0.6,2.9,2.3,2.9c1.2,0,1.9-0.8,2-2h1
		c-0.2,1.7-1.3,2.8-3,2.8c-2.1,0-3.2-1.6-3.2-3.5c0-2,1.2-3.6,3.2-3.6c1.4,0,2.5,0.7,2.8,2.2L149.7,59.6L149.7,59.6z"/>
	<path d="M154.1,59.2c1.6,0,2.4,1.2,2.4,2.5c0,1.5-0.8,2.5-2.4,2.5s-2.4-1.2-2.4-2.5C151.8,60.4,152.6,59.2,154.1,59.2z M154.1,63.7
		c0.8,0,1.5-0.6,1.5-1.9c0-1.2-0.6-1.9-1.5-1.9c-0.8,0-1.5,0.6-1.5,1.9S153.3,63.7,154.1,63.7z"/>
	<path d="M157.9,57.6h0.8v6.8h-0.8V57.6z"/>
	<path d="M162.5,59.2c1.6,0,2.4,1.2,2.4,2.5c0,1.5-0.8,2.5-2.4,2.5s-2.4-1.2-2.4-2.5C160.2,60.4,161,59.2,162.5,59.2z M162.5,63.7
		c0.8,0,1.5-0.6,1.5-1.9c0-1.2-0.6-1.9-1.5-1.9c-0.8,0-1.5,0.6-1.5,1.9C161,63.1,161.7,63.7,162.5,63.7z"/>
	<path d="M166.2,59.4h0.7v1.1l0,0c0.4-0.7,1-1.2,1.8-1.2v0.8c-1.3,0-1.8,0.7-1.8,2v2.2h-0.8v-5H166.2z"/>
	<path d="M174.2,64.3c-0.1,0.1-0.3,0.1-0.5,0.1c-0.4,0-0.6-0.2-0.6-0.7c-0.4,0.5-1.1,0.7-1.7,0.7c-0.8,0-1.6-0.4-1.6-1.4
		c0-1.2,0.8-1.4,1.7-1.5c0.8-0.2,1.7-0.1,1.7-0.7c0-0.7-0.5-0.8-1.1-0.8c-0.6,0-1.2,0.2-1.3,1h-0.8c0-1.3,1-1.7,2.1-1.7
		c0.8,0,1.8,0.2,1.8,1.4v2.5c0,0.4,0,0.5,0.2,0.5c0.1,0,0.1,0,0.2,0v0.6H174.2z M172.9,61.8c-0.3,0.2-1,0.2-1.5,0.3
		c-0.5,0.1-1,0.3-1,0.8s0.4,0.7,1,0.7c1.1,0,1.5-0.6,1.5-1.2V61.8z"/>
	<path d="M179.7,64.3h-0.8v-0.6l0,0c-0.3,0.5-0.8,0.7-1.6,0.7c-1.5,0-2.2-1.2-2.2-2.5c0-1.4,0.7-2.5,2.2-2.5c0.5,0,1.3,0.2,1.6,0.7
		l0,0v-2.5h0.8V64.3z M177.5,63.7c1.1,0,1.5-1,1.5-1.9s-0.4-1.9-1.6-1.9c-1.1,0-1.5,1-1.5,1.9C175.9,62.9,176.4,63.7,177.5,63.7z"/>
	<path d="M183.5,59.2c1.6,0,2.4,1.2,2.4,2.5c0,1.5-0.8,2.5-2.4,2.5s-2.4-1.2-2.4-2.5C181.1,60.4,181.9,59.2,183.5,59.2z M183.5,63.7
		c0.8,0,1.5-0.6,1.5-1.9c0-1.2-0.6-1.9-1.5-1.9c-0.8,0-1.5,0.6-1.5,1.9C181.9,63.1,182.7,63.7,183.5,63.7z"/>
	<path d="M194.4,59.6c-0.1-1-0.7-1.4-1.7-1.4c-0.7,0-1.5,0.3-1.5,1.2c0,0.8,1.1,1,2.2,1.2c1.1,0.2,2.2,0.6,2.2,2c0,1.5-1.4,2-2.7,2
		c-1.5,0-2.9-0.7-2.9-2.4h0.8c0,1.2,1,1.6,2,1.6c0.8,0,1.7-0.2,1.7-1.3c0-1-1.1-1.1-2.2-1.4c-1.1-0.2-2.2-0.5-2.2-1.8
		c0-1.4,1.3-2,2.4-2c1.4,0,2.4,0.6,2.5,2.1h-0.8V59.6z"/>
	<path d="M196.9,59.4h0.8v0.7l0,0c0.3-0.5,0.8-0.7,1.6-0.7c1.5,0,2.2,1.2,2.2,2.5c0,1.4-0.7,2.5-2.2,2.5c-0.5,0-1.3-0.2-1.6-0.7l0,0
		v2.5h-0.8V59.4z M199.1,60c-1.1,0-1.5,1-1.5,1.9c0,1,0.4,1.9,1.6,1.9c1.1,0,1.5-1,1.5-1.9C200.7,60.9,200.2,60,199.1,60z"/>
	<path d="M202.9,59.4h0.7v1.1l0,0c0.4-0.7,1-1.2,1.8-1.2v0.8c-1.3,0-1.8,0.7-1.8,2v2.2h-0.8v-5H202.9z"/>
	<path d="M207.3,58.5h-0.8v-1h0.8V58.5z M206.5,59.4h0.8v5h-0.8V59.4z"/>
	<path d="M209,59.4h0.7v0.7l0,0c0.3-0.6,0.8-0.8,1.6-0.8c1.3,0,1.7,0.7,1.7,1.8v3.3h-0.8v-3.4c0-0.6-0.4-1-1-1c-1,0-1.5,0.6-1.5,1.6
		v2.8h-0.8v-5H209z"/>
	<path d="M218.9,63.9c0,1.6-0.7,2.4-2.3,2.4c-1,0-2-0.4-2-1.5h0.8c0,0.6,0.7,0.8,1.3,0.8c1.1,0,1.5-0.7,1.5-1.9v-0.3l0,0
		c-0.3,0.6-1,0.8-1.6,0.8c-1.5,0-2.2-1.2-2.2-2.5c0-1.2,0.5-2.7,2.3-2.7c0.6,0,1.2,0.3,1.5,0.8l0,0v-0.7h0.7L218.9,63.9L218.9,63.9z
		 M218.1,61.8c0-0.8-0.4-1.8-1.4-1.8c-1.1,0-1.5,0.8-1.5,1.8c0,0.8,0.3,1.9,1.4,1.9C217.7,63.7,218.1,62.6,218.1,61.8z"/>
	<path d="M221,62.8c0,0.7,0.6,1,1.4,1c0.5,0,1.2-0.1,1.2-0.7c0-0.6-0.8-0.7-1.6-1c-0.8-0.2-1.6-0.4-1.6-1.4c0-1,1-1.4,1.8-1.4
		c1.1,0,1.9,0.3,2,1.6h-0.8c-0.1-0.6-0.6-0.8-1.2-0.8s-1.1,0.1-1.1,0.6s0.8,0.6,1.6,0.8c0.8,0.2,1.6,0.4,1.6,1.4
		c0,1.2-1.1,1.6-2.1,1.6c-1.1,0-2-0.4-2.1-1.7H221z"/>
	<path d="M234.9,57.6h2.3c2.1,0,3.3,1.1,3.3,3.3c0,2.3-1,3.6-3.3,3.6h-2.3V57.6z M235.9,63.6h1.5c0.6,0,2.3-0.2,2.3-2.7
		c0-1.6-0.6-2.7-2.2-2.7H236v5.3H235.9z"/>
	<path d="M246.1,62.8c-0.2,1.1-1,1.7-2.1,1.7c-1.6,0-2.3-1.1-2.3-2.5c0-1.5,1-2.5,2.3-2.5c1.7,0,2.3,1.6,2.2,2.9h-3.7
		c0,0.8,0.4,1.6,1.5,1.6c0.6,0,1.2-0.3,1.3-1h0.8V62.8z M245.3,61.4c0-0.7-0.6-1.4-1.4-1.4c-0.8,0-1.4,0.6-1.4,1.4H245.3z"/>
	<path d="M247.4,59.4h0.7v0.7l0,0c0.3-0.6,0.8-0.8,1.6-0.8c1.3,0,1.7,0.7,1.7,1.8v3.3h-0.8v-3.4c0-0.6-0.4-1-1-1
		c-1,0-1.5,0.6-1.5,1.6v2.8h-0.8v-5H247.4z"/>
	<path d="M255.3,64.3h-0.8l-1.8-5h1l1.4,4.1l0,0l1.4-4.1h0.8L255.3,64.3z"/>
	<path d="M262.5,62.8c-0.2,1.1-1,1.7-2.1,1.7c-1.6,0-2.3-1.1-2.3-2.5c0-1.5,1-2.5,2.3-2.5c1.7,0,2.3,1.6,2.2,2.9h-3.7
		c0,0.8,0.4,1.6,1.5,1.6c0.6,0,1.2-0.3,1.3-1h0.8V62.8z M261.7,61.4c0-0.7-0.6-1.4-1.4-1.4c-0.8,0-1.4,0.6-1.4,1.4H261.7z"/>
	<path d="M263.7,59.4h0.7v1.1l0,0c0.4-0.7,1-1.2,1.8-1.2v0.8c-1.3,0-1.8,0.7-1.8,2v2.2h-0.8v-5H263.7z"/>
	<path d="M278.5,57.6h1l2.7,6.8h-1l-0.7-2h-2.9l-0.7,2h-1L278.5,57.6z M277.7,61.5h2.3l-1.2-3.2l0,0L277.7,61.5z"/>
	<path d="M283,59.4h0.7v0.7l0,0c0.3-0.6,0.8-0.8,1.6-0.8c1.3,0,1.7,0.7,1.7,1.8v3.3h-0.8v-3.4c0-0.6-0.4-1-1-1c-1,0-1.5,0.6-1.5,1.6
		v2.8h-0.8v-5H283z"/>
	<path d="M289.2,62.8c0,0.7,0.6,1,1.4,1c0.5,0,1.2-0.1,1.2-0.7c0-0.6-0.8-0.7-1.6-1c-0.8-0.2-1.6-0.4-1.6-1.4c0-1,1-1.4,1.8-1.4
		c1.1,0,1.9,0.3,2,1.6h-0.8c-0.1-0.6-0.6-0.8-1.2-0.8s-1.1,0.1-1.1,0.6s0.8,0.6,1.6,0.8c0.8,0.2,1.6,0.4,1.6,1.4
		c0,1.2-1.1,1.6-2.1,1.6c-1.1,0-2-0.4-2.1-1.7H289.2z"/>
	<path d="M297.2,60.9c-0.1-0.6-0.5-1-1.3-1c-1.2,0-1.5,1-1.5,1.9c0,1,0.4,1.8,1.5,1.8c0.7,0,1.3-0.4,1.4-1.2h0.8
		c-0.2,1.2-1,1.9-2.2,1.9c-1.5,0-2.3-1.1-2.3-2.5c0-1.5,0.7-2.7,2.3-2.7c1.2,0,2,0.5,2.1,1.7H297.2z"/>
	<path d="M299.4,57.6h0.8v2.5l0,0c0.3-0.6,1-0.8,1.6-0.8c1.3,0,1.7,0.7,1.7,1.8v3.3h-0.8v-3.4c0-0.6-0.4-1-1-1c-1,0-1.5,0.6-1.5,1.6
		v2.8h-0.8V57.6z"/>
	<path d="M309.1,64.3h-0.7v-0.7l0,0c-0.3,0.6-0.8,0.8-1.6,0.8c-1.3,0-1.7-0.7-1.7-1.8v-3.3h0.8v3.4c0,0.6,0.4,1,1,1
		c1,0,1.5-0.6,1.5-1.6v-2.8h0.8v5H309.1z"/>
	<path d="M311.9,59.4h1v0.7h-1v3.1c0,0.4,0.1,0.4,0.6,0.4h0.4v0.7h-0.6c-0.8,0-1.2-0.2-1.2-1.1v-3.2h-0.8v-0.7h0.8v-1.5h0.8v1.5
		H311.9z"/>
	<path d="M313.8,63.7l3-3.6H314v-0.7h3.8v0.5l-3,3.7h3.2v0.7h-4.1v-0.6H313.8z"/>
	<path d="M322.3,57.6h1.3l2.1,5.7l2.1-5.7h1.3v6.8h-0.8v-5.6l0,0l-2.1,5.6h-0.7l-2.1-5.6l0,0v5.6h-0.8v-6.8H322.3z"/>
	<path d="M335,62.8c-0.2,1.1-1,1.7-2.1,1.7c-1.6,0-2.3-1.1-2.3-2.5c0-1.5,1-2.5,2.3-2.5c1.7,0,2.3,1.6,2.2,2.9h-3.7
		c0,0.8,0.4,1.6,1.5,1.6c0.6,0,1.2-0.3,1.3-1h0.8V62.8z M334.3,61.4c0-0.7-0.6-1.4-1.4-1.4c-0.8,0-1.4,0.6-1.4,1.4H334.3z"/>
	<path d="M340.8,64.3h-0.8v-0.6l0,0c-0.3,0.5-0.8,0.7-1.6,0.7c-1.5,0-2.2-1.2-2.2-2.5c0-1.4,0.7-2.5,2.2-2.5c0.5,0,1.3,0.2,1.6,0.7
		l0,0v-2.5h0.8V64.3z M338.6,63.7c1.1,0,1.5-1,1.5-1.9s-0.4-1.9-1.6-1.9c-1.1,0-1.5,1-1.5,1.9C337,62.9,337.5,63.7,338.6,63.7z"/>
	<path d="M343.3,58.5h-0.8v-1h0.8V58.5z M342.5,59.4h0.8v5h-0.8V59.4z"/>
	<path d="M348.3,60.9c-0.1-0.6-0.5-1-1.3-1c-1.2,0-1.5,1-1.5,1.9c0,1,0.4,1.8,1.5,1.8c0.7,0,1.3-0.4,1.4-1.2h0.8
		c-0.2,1.2-1,1.9-2.2,1.9c-1.5,0-2.3-1.1-2.3-2.5c0-1.5,0.7-2.7,2.3-2.7c1.2,0,2,0.5,2.1,1.7H348.3z"/>
	<path d="M354.8,64.3c-0.1,0.1-0.3,0.1-0.5,0.1c-0.4,0-0.6-0.2-0.6-0.7c-0.4,0.5-1.1,0.7-1.7,0.7c-0.8,0-1.6-0.4-1.6-1.4
		c0-1.2,0.8-1.4,1.7-1.5c0.8-0.2,1.7-0.1,1.7-0.7c0-0.7-0.5-0.8-1.1-0.8c-0.6,0-1.2,0.2-1.3,1h-1.1c0-1.3,1-1.7,2.1-1.7
		c0.8,0,1.8,0.2,1.8,1.4v2.5c0,0.4,0,0.5,0.2,0.5c0.1,0,0.1,0,0.2,0v0.6H354.8z M353.5,61.8c-0.3,0.2-1,0.2-1.5,0.3
		c-0.5,0.1-1,0.3-1,0.8s0.4,0.7,1,0.7c1.1,0,1.5-0.6,1.5-1.2V61.8z"/>
	<path d="M356,57.6h0.8v6.8H356V57.6z"/>
	<path d="M366.5,59.6c-0.2-1-1-1.5-1.9-1.5c-1.6,0-2.3,1.4-2.3,2.8c0,1.6,0.6,2.9,2.3,2.9c1.2,0,1.9-0.8,2-2h1
		c-0.2,1.7-1.3,2.8-3,2.8c-2.1,0-3.2-1.6-3.2-3.5c0-2,1.2-3.6,3.2-3.6c1.4,0,2.5,0.7,2.8,2.2L366.5,59.6L366.5,59.6z"/>
	<path d="M373.2,64.3c-0.1,0.1-0.3,0.1-0.5,0.1c-0.4,0-0.6-0.2-0.6-0.7c-0.4,0.5-1.1,0.7-1.7,0.7c-0.8,0-1.6-0.4-1.6-1.4
		c0-1.2,0.8-1.4,1.7-1.5c0.8-0.2,1.7-0.1,1.7-0.7c0-0.7-0.5-0.8-1.1-0.8c-0.6,0-1.2,0.2-1.3,1h-0.8c0-1.3,1-1.7,2.1-1.7
		c0.8,0,1.8,0.2,1.8,1.4v2.5c0,0.4,0,0.5,0.2,0.5c0.1,0,0.1,0,0.2,0v0.6H373.2z M371.9,61.8c-0.3,0.2-1,0.2-1.5,0.3
		c-0.5,0.1-1,0.3-1,0.8s0.4,0.7,1,0.7c1.1,0,1.5-0.6,1.5-1.2V61.8z"/>
	<path d="M374.3,59.4h0.7v0.7l0,0c0.3-0.5,1-0.8,1.6-0.8c0.6,0,1.2,0.2,1.4,0.8c0.3-0.5,1-0.8,1.6-0.8c1,0,1.6,0.4,1.6,1.5v3.6h-0.8
		v-3.3c0-0.6-0.2-1.1-1-1.1c-0.7,0-1.3,0.5-1.3,1.3v3.1h-0.8v-3.3c0-0.6-0.2-1.1-1-1.1c-1,0-1.3,0.8-1.3,1.3v3.1h-0.8v-5H374.3z"/>
	<path d="M382.8,59.4h0.8v0.7l0,0c0.3-0.5,0.8-0.7,1.6-0.7c1.5,0,2.2,1.2,2.2,2.5c0,1.4-0.7,2.5-2.2,2.5c-0.5,0-1.3-0.2-1.6-0.7l0,0
		v2.5h-0.8V59.4z M385.2,60c-1.1,0-1.5,1-1.5,1.9c0,1,0.4,1.9,1.6,1.9c1.1,0,1.5-1,1.5-1.9C386.7,60.9,386.2,60,385.2,60z"/>
	<path d="M393,64.3h-0.7v-0.7l0,0c-0.3,0.6-0.8,0.8-1.6,0.8c-1.3,0-1.7-0.7-1.7-1.8v-3.3h0.8v3.4c0,0.6,0.4,1,1,1
		c1,0,1.5-0.6,1.5-1.6v-2.8h0.8v5H393z"/>
	<path d="M395,62.8c0,0.7,0.6,1,1.4,1c0.5,0,1.2-0.1,1.2-0.7c0-0.6-0.8-0.7-1.6-1c-0.8-0.2-1.6-0.4-1.6-1.4c0-1,1-1.4,1.8-1.4
		c1.1,0,1.9,0.3,2,1.6h-0.8c-0.1-0.6-0.6-0.8-1.2-0.8s-1.1,0.1-1.1,0.6s0.8,0.6,1.6,0.8c0.8,0.2,1.6,0.4,1.6,1.4
		c0,1.2-1.1,1.6-2.1,1.6s-2-0.4-2.1-1.7H395z"/>
</g>
<polygon class="st1" points="11.4,0 1,10.4 1,46.4 11.4,56.8 22.9,56.8 22.9,65.6 33.4,76 63.9,76 74.4,65.6 74.4,37.7 79.8,37.7 
	79.8,19.2 57.9,19.2 57.9,10.4 47.5,0 "/>
<polygon points="47.1,1.1 56.9,10.9 56.9,20.3 78.6,20.3 78.6,36.6 73.3,36.6 73.3,65.2 63.4,75 33.8,75 23.9,65.2 23.9,55.7 
	11.9,55.7 2.1,46 2.1,10.9 11.9,1.1 "/>
<polygon class="st2" points="13,53.1 26.7,53.1 26.7,64 35,72.2 62.3,72.2 70.5,64 70.5,34 76,34 76,22.9 59.5,22.9 59.5,61.3 
	37.6,61.3 37.6,53.1 45.9,53.1 54.1,44.8 54.1,34 43.2,34 43.2,42 37.6,42 37.6,22.9 21.2,22.9 21.2,34 26.7,34 26.7,42 15.8,42 
	15.8,14.7 43.2,14.7 43.2,22.9 54.1,22.9 54.1,12 45.9,3.8 13,3.8 4.8,12 4.8,44.8 "/>
<polygon class="st1" points="36.4,51.7 45.4,51.7 52.7,44.3 52.7,35.3 44.4,35.3 44.4,43.4 36.4,43.4 36.4,24.3 22.6,24.3 
	22.6,32.6 28.1,32.6 28.1,43.4 14.4,43.4 14.4,13.4 44.4,13.4 44.4,21.6 52.7,21.6 52.7,12.5 45.4,5.1 13.5,5.1 6.1,12.5 6.1,44.3 
	13.5,51.7 28.1,51.7 28.1,63.5 35.5,70.9 61.7,70.9 69.3,63.5 69.3,32.6 74.6,32.6 74.6,24.3 60.8,24.3 60.8,62.6 36.4,62.6 "/>
</svg>
